<svg xmlns="http://www.w3.org/2000/svg" viewBox="0 0 854 44.96"><defs><style>.cls-1{fill:#fff;}.cls-2{fill:#c1c4d9;}</style></defs><g id="Layer_2" data-name="Layer 2"><g id="BACKGROUND"><g id="Group_6761" data-name="Group 6761"><g id="Group_6731" data-name="Group 6731"><path id="Path_2680" data-name="Path 2680" class="cls-1" d="M180.56,8.78H151.44l-7.06,7.06V45h43.23V15.84Z"/><path id="Path_2681" data-name="Path 2681" class="cls-2" d="M180.56,8.78H151.44l-7.06,7.06V45h43.24V15.84Zm-7.95,1.76L168.2,15h-2.64L170,10.54Zm-4.41,0L163.79,15h-2.65l4.42-4.41Zm-4.41,0L159.38,15h-2.65l4.41-4.41Zm-4.41,0L155,15h-2.65l4.41-4.41Zm-7.06,0H155L150.55,15h-2.64ZM170,15l4.41-4.41H177L172.61,15Zm1.76,28.24H146.14V30.84h25.59Zm8.83,0h-1.77V38.78h1.77Zm5.29,0h-3.53V37H177v6.18H173.5V16.72l6.17-6.18,6.18,6.18ZM176.93,17.6A2.7,2.7,0,1,0,179.68,15h-.05a2.66,2.66,0,0,0-2.7,2.64Zm3.63,0a.89.89,0,1,1-.89-.88.89.89,0,0,1,.89.88Zm-8.83,11.47H146.14V16.72h25.59ZM147.91,18.48v8.83h6.18V18.48Zm4.41,7.06h-2.64V20.25h2.64Zm3.53-7.06v8.83H162V18.48Zm4.41,7.06h-2.65V20.25h2.65Zm3.53-7.06v8.83H170V18.48Zm4.42,7.06h-2.65V20.25h2.65ZM170,34.37H147.91V32.6H170Zm0,7.05H147.91V39.66H170Zm0-3.53H147.91V36.13H170Z"/></g><g id="Group_6732" data-name="Group 6732"><path id="Path_2682" data-name="Path 2682" class="cls-1" d="M622.07,8.78H593l-7.06,7.06V45h43.23V15.84Z"/><path id="Path_2683" data-name="Path 2683" class="cls-2" d="M622.07,8.78H593l-7.06,7.06V45h43.23V15.84Zm-8,1.76L609.71,15h-2.65l4.42-4.41Zm-4.41,0L605.3,15h-2.65l4.41-4.41Zm-4.41,0L600.89,15h-2.65l4.41-4.41Zm-4.41,0L596.48,15h-2.65l4.41-4.41Zm-7.06,0h2.65L592.06,15h-2.64ZM611.48,15l4.41-4.41h2.65L614.12,15Zm1.76,28.24H587.65V30.84h25.59Zm8.83,0H620.3V38.78h1.77Zm5.29,0h-3.53V37h-5.29v6.18H615V16.72l6.17-6.18,6.18,6.18ZM618.43,17.6A2.7,2.7,0,1,0,621.19,15h-.06a2.66,2.66,0,0,0-2.69,2.64Zm3.63,0a.88.88,0,1,1-.88-.88.89.89,0,0,1,.89.88h0Zm-8.82,11.47H587.65V16.72h25.59ZM589.42,18.48v8.83h6.18V18.48Zm4.41,7.06h-2.65V20.25h2.65Zm3.53-7.06v8.83h6.18V18.48Zm4.41,7.06h-2.65V20.25h2.65Zm3.53-7.06v8.83h6.18V18.48Zm4.42,7.06h-2.65V20.25h2.65Zm1.76,8.83H589.42V32.6h22.06Zm0,7.05H589.42V39.66h22.06Zm0-3.53H589.42V36.13h22.06Z"/></g><g id="Group_6733" data-name="Group 6733"><path id="Path_2684" data-name="Path 2684" class="cls-1" d="M395,22.9h29.12L431.22,30V45H388V30Z"/><path id="Path_2685" data-name="Path 2685" class="cls-2" d="M395,22.9h29.12L431.22,30V45H388V30ZM403,24.66l4.41,4.41H410l-4.41-4.41Zm4.41,0,4.42,4.41h2.64L410,24.66Zm4.42,0,4.41,4.41h2.65l-4.42-4.41Zm4.41,0,4.41,4.41h2.65l-4.41-4.41Zm7.06,0h-2.65L425,29.07h2.65ZM403.87,43.19h25.58V30.84H403.86Zm1.76-14.12-4.41-4.41h-2.65L403,29.07ZM395,43.19h1.77V38.78H395Zm-5.29,0h3.53V37h5.29v6.17h3.53V30.84l-6.18-6.18-6.17,6.18Zm8.92-11.47a2.7,2.7,0,1,1-2.75-2.65H396a2.67,2.67,0,0,1,2.7,2.65Zm-3.63,0a.89.89,0,1,0,.88-.88.88.88,0,0,0-.88.88Zm10.59,9.71h22.06V32.6H405.63Zm1.77-7.06h18.53v5.29H407.39Z"/></g><g id="Group_6734" data-name="Group 6734"><path id="Path_2686" data-name="Path 2686" class="cls-1" d="M70.48,22.9H99.59L106.65,30V45H63.42V30Z"/><path id="Path_2687" data-name="Path 2687" class="cls-2" d="M70.48,22.9H99.59L106.65,30V45H63.42V30Zm7.94,1.76,4.41,4.41h2.65l-4.42-4.41Zm4.41,0,4.41,4.41h2.65l-4.41-4.41Zm4.41,0,4.41,4.41H94.3l-4.41-4.41Zm4.41,0,4.41,4.41h2.65L94.3,24.66Zm7.06,0H96.06l4.42,4.41h2.64ZM79.3,43.19h25.59V30.84H79.3Zm1.76-14.12-4.41-4.41H74l4.41,4.41ZM70.48,43.19h1.76V38.78H70.48Zm-5.3,0h3.53V37H74v6.17h3.53V30.84l-6.18-6.18-6.18,6.18Zm8.93-11.47a2.7,2.7,0,1,1-2.76-2.65h.06a2.68,2.68,0,0,1,2.7,2.65Zm-3.63,0a.88.88,0,1,0,.88-.88.87.87,0,0,0-.88.88Zm10.59,9.71h22.05V32.6H81.06Zm1.76-7.06h18.53v5.29H82.83Z"/></g><g id="Group_6735" data-name="Group 6735"><path id="Path_2688" data-name="Path 2688" class="cls-1" d="M793.59,22.9h29.12L829.77,30V45H786.53V30Z"/><path id="Path_2689" data-name="Path 2689" class="cls-2" d="M793.59,22.9h29.12L829.77,30V45H786.53V30Zm7.94,1.76L806,29.07h2.64l-4.41-4.41Zm4.42,0,4.41,4.41H813l-4.41-4.41Zm4.41,0,4.41,4.41h2.65L813,24.66Zm4.41,0,4.41,4.41h2.65l-4.41-4.41Zm7.06,0h-2.65l4.41,4.41h2.65ZM802.42,43.19H828V30.84H802.42Zm1.76-14.12-4.41-4.41h-2.65l4.41,4.41ZM793.59,43.19h1.77V38.78h-1.77Zm-5.29,0h3.53V37h5.29v6.17h3.53V30.84l-6.17-6.18-6.18,6.18Zm8.92-11.47a2.7,2.7,0,1,1-2.75-2.65h0a2.67,2.67,0,0,1,2.7,2.65Zm-3.63,0a.89.89,0,1,0,.89-.88.88.88,0,0,0-.89.88Zm10.59,9.71h22.06V32.6H804.18ZM806,34.37h18.53v5.29H806Z"/></g><g id="Group_6736" data-name="Group 6736"><path id="Path_2690" data-name="Path 2690" class="cls-1" d="M272.23,22.9H243.11L236.05,30V45h43.24V30Z"/><path id="Path_2691" data-name="Path 2691" class="cls-2" d="M272.23,22.9H243.11L236.05,30V45h43.24V30Zm-7.94,1.76-4.42,4.41h-2.64l4.41-4.41Zm-4.42,0-4.41,4.41h-2.65l4.42-4.41Zm-4.41,0-4.41,4.41H248.4l4.41-4.41Zm-4.41,0-4.41,4.41H244l4.41-4.41Zm-7.06,0h2.65l-4.41,4.41h-2.65ZM263.4,43.19H237.81V30.84H263.4Zm-1.76-14.12,4.41-4.41h2.65l-4.41,4.41Zm10.59,14.12h-1.77V38.78h1.77Zm5.29,0H274V37H268.7v6.18h-3.53V30.84l6.17-6.18,6.18,6.18ZM268.6,31.72a2.7,2.7,0,1,0,2.75-2.65h-.05a2.67,2.67,0,0,0-2.7,2.65Zm3.63,0a.89.89,0,1,1-.89-.88.88.88,0,0,1,.89.88Zm-10.59,2.65H239.58V32.6h22.06Zm0,7.06H239.58V39.66h22.06Zm0-3.53H239.58V36.13h22.06Z"/></g><g id="Group_6737" data-name="Group 6737"><path id="Path_2692" data-name="Path 2692" class="cls-1" d="M118.36,22.9h29.12L154.54,30V45H111.3V30Z"/><path id="Path_2693" data-name="Path 2693" class="cls-2" d="M118.36,22.9h29.12L154.54,30V45H111.3V30Zm7.94,1.76,4.41,4.41h2.65L129,24.66Zm4.41,0,4.42,4.41h2.64l-4.41-4.41Zm4.42,0,4.41,4.41h2.64l-4.41-4.41Zm4.41,0L144,29.07h2.65l-4.42-4.41Zm7.06,0H144l4.41,4.41H151ZM127.18,43.19h25.59V30.84H127.18ZM129,29.07l-4.41-4.41h-2.65l4.41,4.41ZM118.36,43.19h1.77V38.78h-1.77Zm-5.29,0h3.53V37h5.29v6.17h3.53V30.84l-6.18-6.18-6.17,6.18ZM122,31.72a2.7,2.7,0,1,1-2.75-2.65h.05a2.67,2.67,0,0,1,2.7,2.65Zm-3.63,0a.89.89,0,1,0,.88-.88.88.88,0,0,0-.88.88ZM129,34.37H151V32.6H129Zm0,7.06H151V39.66H129Zm0-3.53H151V36.13H129Z"/></g><g id="Group_6738" data-name="Group 6738"><path id="Path_2694" data-name="Path 2694" class="cls-1" d="M749.6,22.9H720.48L713.42,30V45h43.23V30Z"/><path id="Path_2695" data-name="Path 2695" class="cls-2" d="M749.6,22.9H720.48L713.42,30V45h43.24V30Zm-8,1.76-4.41,4.41h-2.65L739,24.66Zm-4.41,0-4.41,4.41h-2.65l4.41-4.41Zm-4.41,0-4.41,4.41h-2.65l4.41-4.41Zm-4.41,0L724,29.07h-2.65l4.41-4.41Zm-7.06,0H724l-4.41,4.41H717Zm19.41,18.53H715.18V30.84h25.59ZM739,29.07l4.41-4.41h2.64l-4.41,4.41Zm10.58,14.12h-1.76V38.78h1.76Zm5.3,0h-3.53V37h-5.3v6.17h-3.53V30.84l6.18-6.18,6.18,6.18ZM746,31.72a2.7,2.7,0,1,0,2.76-2.65h-.06A2.68,2.68,0,0,0,746,31.72Zm3.63,0a.88.88,0,1,1-.88-.88.89.89,0,0,1,.89.88h0ZM739,34.37H717V32.6H739Zm0,7.06H717V39.66H739Zm0-3.53H717V36.13H739Z"/></g><g id="Group_6739" data-name="Group 6739"><path id="Path_2696" data-name="Path 2696" class="cls-1" d="M498.73,22.9H469.62L462.56,30V45h43.23V30Z"/><path id="Path_2697" data-name="Path 2697" class="cls-2" d="M498.73,22.9H469.62L462.56,30V45h43.23V30ZM470.5,24.66h2.64l-4.41,4.41h-2.64Zm7.06,0-4.42,4.41H470.5l4.41-4.41Zm4.41,0-4.41,4.41h-2.65l4.41-4.41Zm4.41,0L482,29.07h-2.65l4.41-4.41Zm4.41,0-4.41,4.41h-2.65l4.42-4.41Zm-2.64,4.41,4.41-4.41h2.64l-4.41,4.41Zm1.76,14.12H464.32V30.84h25.59ZM466.09,32.6v8.83h6.18V32.6Zm4.41,7.06h-2.65V34.37h2.65ZM474,32.6v8.83h6.18V32.6Zm4.41,7.06h-2.65V34.37h2.65ZM482,32.6v8.83h6.18V32.6Zm4.41,7.06h-2.64V34.37h2.64Zm12.36,3.53H497V38.78h1.77Zm5.29,0H500.5V37h-5.29v6.18h-3.53V30.84l6.17-6.18L504,30.84Zm-8.92-11.47a2.7,2.7,0,1,0,2.75-2.65h-.05a2.69,2.69,0,0,0-2.71,2.65h0Zm3.63,0a.89.89,0,1,1-.89-.88.88.88,0,0,1,.89.88Z"/></g><g id="Group_6740" data-name="Group 6740"><path id="Path_2698" data-name="Path 2698" class="cls-1" d="M372,8.78H342.87l-7.06,7.06V45H379V15.84Z"/><path id="Path_2699" data-name="Path 2699" class="cls-2" d="M372,8.78H342.87l-7.06,7.06V45H379V15.84ZM364,10.54,359.63,15H357l4.42-4.41Zm-4.41,0L355.22,15h-2.65L357,10.54Zm-4.41,0L350.81,15h-2.65l4.41-4.41Zm-4.41,0L346.4,15h-2.65l4.41-4.41Zm-7.06,0h2.65L342,15h-2.64ZM361.4,15l4.41-4.41h2.65L364,15Zm1.76,28.24H337.57V30.84h25.59ZM339.34,32.6v8.83h6.18V32.6Zm4.41,7.06H341.1V34.37h2.65Zm3.53-7.06v8.83h6.18V32.6Zm4.41,7.06H349V34.37h2.65Zm3.53-7.06v8.83h6.18V32.6Zm4.41,7.06H357V34.37h2.64ZM372,43.19h-1.77V38.78H372Zm5.29,0h-3.53V37h-5.29v6.18h-3.53V16.72l6.18-6.18,6.17,6.18ZM368.36,17.6A2.7,2.7,0,1,0,371.11,15h-.05a2.69,2.69,0,0,0-2.71,2.65h0Zm3.63,0a.89.89,0,1,1-.88-.88.87.87,0,0,1,.87.88Zm-8.83,11.47H337.57V16.72h25.59Zm-1.76-1.76H339.34V18.48H361.4Zm-1.77-7.06H341.1v5.29h18.53Z"/></g><g id="Group_6741" data-name="Group 6741"><path id="Path_2700" data-name="Path 2700" class="cls-1" d="M48.36,8.78H19.24l-7.06,7.06V45H55.42V15.84Z"/><path id="Path_2701" data-name="Path 2701" class="cls-2" d="M48.36,8.78H19.24l-7.06,7.06V45H55.42V15.84Zm-7.94,1.76L36,15H33.36l4.41-4.41Zm-4.41,0L31.6,15H29l4.41-4.41Zm-4.41,0L27.19,15H24.54L29,10.54Zm-4.41,0L22.77,15H20.13l4.41-4.41Zm-7.06,0h2.64L18.36,15H15.72ZM37.77,15l4.42-4.41h2.64L40.42,15Zm1.77,28.24H14V30.84H39.54ZM15.72,32.6v8.83h6.17V32.6Zm4.41,7.06H17.48V34.37h2.65Zm3.53-7.06v8.83h6.18V32.6Zm4.41,7.06H25.42V34.37h2.64ZM31.6,32.6v8.83h6.18V32.6ZM36,39.66H33.37V34.37H36Zm12.36,3.53H46.6V38.78h1.77Zm5.29,0H50.13V37H44.84v6.18H41.31V16.72l6.17-6.18,6.18,6.18ZM44.74,17.6A2.7,2.7,0,1,0,47.49,15h-.05a2.69,2.69,0,0,0-2.71,2.65h0Zm3.63,0a.89.89,0,0,1-.89.88.88.88,0,1,1,.88-.88ZM39.54,29.07H14V16.72H39.54Zm-1.76-1.76H15.72V18.48H37.78ZM36,20.25H17.48v5.29H36Z"/></g><g id="Group_6742" data-name="Group 6742"><path id="Path_2702" data-name="Path 2702" class="cls-1" d="M533.31,8.78h29.12l7.06,7.06V45H526.26V15.84Z"/><path id="Path_2703" data-name="Path 2703" class="cls-2" d="M533.31,8.78h29.12l7.06,7.06V45H526.26V15.84Zm8,1.76L545.67,15h2.64l-4.41-4.41Zm4.41,0L550.08,15h2.65l-4.42-4.41Zm4.41,0L554.49,15h2.65l-4.41-4.41Zm4.41,0L558.9,15h2.65l-4.41-4.41Zm7.06,0H558.9L563.31,15H566ZM543.9,15l-4.41-4.41h-2.65L541.25,15Zm-1.76,28.24h25.59V30.84H542.14ZM566,32.6v8.83h-6.17V32.6Zm-4.41,7.06h2.65V34.37h-2.65ZM558,32.6v8.83h-6.18V32.6Zm-4.41,7.06h2.64V34.37h-2.64Zm-3.53-7.06v8.83H543.9V32.6Zm-4.41,7.06h2.64V34.37h-2.64Zm-12.36,3.53h1.77V38.78h-1.77Zm-5.29,0h3.53V37h5.29v6.18h3.53V16.72l-6.17-6.18L528,16.72Zm8.92-25.59A2.7,2.7,0,1,1,534.19,15h0a2.66,2.66,0,0,1,2.7,2.64Zm-3.63,0a.89.89,0,1,0,.89-.88.88.88,0,0,0-.89.88Zm8.83,11.47h25.59V16.72H542.14ZM566,18.48v8.83h-6.17V18.48Zm-4.41,7.06h2.65V20.25h-2.65ZM558,18.48v8.83h-6.18V18.48Zm-4.41,7.06h2.64V20.25h-2.64Zm-3.53-7.06v8.83H543.9V18.48Zm-4.41,7.06h2.64V20.25h-2.64Z"/></g><g id="Group_6743" data-name="Group 6743"><path id="Path_2704" data-name="Path 2704" class="cls-1" d="M692,8.78h29.12l7.06,7.06V45H685V15.84Z"/><path id="Path_2705" data-name="Path 2705" class="cls-2" d="M692,8.78h29.12l7.06,7.06V45H685V15.84ZM700,10.54,704.36,15H707l-4.41-4.41Zm4.41,0L708.78,15h2.64L707,10.54Zm4.42,0L713.19,15h2.64l-4.41-4.41Zm4.41,0L717.6,15h2.65l-4.42-4.41Zm7.06,0H717.6L722,15h2.65ZM702.6,15l-4.41-4.41h-2.65L700,15Zm-1.77,28.24h25.59V30.84H700.83ZM724.66,32.6v8.83h-6.18V32.6Zm-4.41,7.06h2.64V34.37h-2.64Zm-3.53-7.06v8.83h-6.18V32.6Zm-4.42,7.06H715V34.37H712.3Zm-3.53-7.06v8.83H702.6V32.6Zm-4.41,7.06H707V34.37h-2.65ZM692,43.19h1.76V38.78H692Zm-5.29,0h3.53V37h5.29v6.18h3.53V16.72l-6.18-6.18-6.17,6.18Zm8.92-25.59A2.7,2.7,0,1,1,692.89,15h.05a2.66,2.66,0,0,1,2.7,2.64Zm-3.63,0a.88.88,0,0,0,.88.88.88.88,0,0,0,0-1.76.88.88,0,0,0-.88.88Zm8.82,11.47h25.59V16.72H700.83Zm23.83-10.59v8.83h-6.18V18.48Zm-4.41,7.06h2.64V20.25h-2.64Zm-3.53-7.06v8.83h-6.18V18.48Zm-4.42,7.06H715V20.25H712.3Zm-3.52-7.06v8.83H702.6V18.48Zm-4.42,7.06H707V20.25h-2.65Z"/></g><g id="Group_6744" data-name="Group 6744"><path id="Path_2706" data-name="Path 2706" class="cls-1" d="M198.63,20.6a6.53,6.53,0,1,0-1.77,0h0v-3L194.22,15l.88-.88,1.76,1.76V13.24h1.77v4.41l1.76-1.77.89.89-2.65,2.64Z"/><path id="Path_2707" data-name="Path 2707" class="cls-2" d="M198.63,22V45h-1.76V22h0a7.94,7.94,0,1,1,1.76,0Zm0-1.41a6.54,6.54,0,1,0-1.76,0h0V17.63L194.22,15l.88-.88,1.77,1.76V13.23h1.76v4.4l1.77-1.76.88.88-2.65,2.65Z"/></g><g id="Group_6745" data-name="Group 6745"><path id="Path_2708" data-name="Path 2708" class="cls-1" d="M290.53,20.6a6.54,6.54,0,1,0-1.76,0h0v-3L286.12,15l.88-.88,1.77,1.76V13.24h1.76v4.41l1.77-1.77.88.89-2.65,2.64Z"/><path id="Path_2709" data-name="Path 2709" class="cls-2" d="M290.54,22V45h-1.77V22h0a7.94,7.94,0,1,1,1.77,0Zm0-1.41a6.55,6.55,0,1,0-1.77,0h0V17.63L286.12,15l.89-.88,1.76,1.76V13.23h1.77v4.4l1.76-1.76.88.88-2.64,2.65Z"/></g><g id="Group_6746" data-name="Group 6746"><path id="Path_2710" data-name="Path 2710" class="cls-1" d="M8.82,20.6a6.54,6.54,0,1,0-1.76,0h0v-3L4.41,15l.88-.88,1.77,1.76V13.24H8.82v4.41l1.77-1.77.88.89L8.82,19.41Z"/><path id="Path_2711" data-name="Path 2711" class="cls-2" d="M8.83,22V45H7.06V22h0a7.94,7.94,0,1,1,1.77,0Zm0-1.41a6.55,6.55,0,1,0-1.77,0h0V17.63L4.41,15l.89-.88,1.76,1.76V13.23H8.83v4.4l1.76-1.76.88.88L8.83,19.4Z"/></g><g id="Group_6747" data-name="Group 6747"><path id="Path_2712" data-name="Path 2712" class="cls-1" d="M846.94,20.6a6.54,6.54,0,1,0-1.76,0h0v-3L842.53,15l.88-.88,1.77,1.76V13.24h1.76v4.41l1.77-1.77.88.89-2.65,2.64Z"/><path id="Path_2713" data-name="Path 2713" class="cls-2" d="M846.94,22V45h-1.76V22h0a7.94,7.94,0,1,1,1.76,0Zm0-1.41a6.54,6.54,0,1,0-1.76,0h0V17.63L842.53,15l.88-.88,1.77,1.76V13.23h1.76v4.4l1.77-1.76.88.88-2.65,2.65Z"/></g><g id="Group_6748" data-name="Group 6748"><path id="Path_2714" data-name="Path 2714" class="cls-1" d="M427.37,20.6a6.54,6.54,0,1,0-1.76,0h0v-3L423,15l.88-.88,1.77,1.76V13.24h1.76v4.41l1.77-1.77.88.89-2.65,2.64Z"/><path id="Path_2715" data-name="Path 2715" class="cls-2" d="M427.37,22V45h-1.76V22h0a7.94,7.94,0,1,1,1.76,0Zm0-1.41a6.54,6.54,0,1,0-1.76,0h0V17.63L423,15l.88-.88,1.77,1.76V13.23h1.76v4.4l1.77-1.76.88.88-2.65,2.65Z"/></g><g id="Group_6749" data-name="Group 6749"><path id="Path_2716" data-name="Path 2716" class="cls-1" d="M652.14,20.6a6.54,6.54,0,1,0-1.76,0h0v-3L647.73,15l.88-.88,1.77,1.76V13.24h1.76v4.41l1.77-1.77.88.89-2.65,2.64Z"/><path id="Path_2717" data-name="Path 2717" class="cls-2" d="M652.14,22V45h-1.76V22h0a7.94,7.94,0,1,1,1.76,0Zm0-1.41a6.54,6.54,0,1,0-1.76,0h0V17.63L647.73,15l.88-.88,1.77,1.76V13.23h1.76v4.4l1.77-1.76.88.88-2.65,2.65Z"/></g><g id="Group_6750" data-name="Group 6750"><path id="Path_2718" data-name="Path 2718" class="cls-1" d="M586.62,38.2a6.54,6.54,0,1,0-1.76,0h0v-3l-2.65-2.65.88-.88,1.77,1.77V30.84h1.76v4.41l1.77-1.76.88.88L586.62,37Z"/><path id="Path_2719" data-name="Path 2719" class="cls-2" d="M586.62,39.61V45h-1.76V39.61h0a7.94,7.94,0,1,1,1.76,0Zm0-1.41a6.54,6.54,0,1,0-1.76,0h0v-3l-2.65-2.65.88-.88,1.77,1.76V30.84h1.76v4.41l1.77-1.76.88.88L586.62,37Z"/></g><g id="Group_6751" data-name="Group 6751"><path id="Path_2720" data-name="Path 2720" class="cls-1" d="M442.77,38.2a6.53,6.53,0,1,0-1.77,0h0v-3l-2.64-2.65.88-.88L441,33.49V30.84h1.77v4.41l1.76-1.76.89.88L442.77,37Z"/><path id="Path_2721" data-name="Path 2721" class="cls-2" d="M442.77,39.61V45H441V39.61h0a7.94,7.94,0,1,1,1.77,0Zm0-1.41a6.53,6.53,0,1,0-1.77,0h0v-3l-2.64-2.65.88-.88L441,33.48V30.84h1.77v4.41l1.76-1.76.89.88L442.77,37Z"/></g><g id="Group_6752" data-name="Group 6752"><path id="Path_2722" data-name="Path 2722" class="cls-1" d="M667.54,38.2a6.55,6.55,0,1,0-1.77,0h0v-3l-2.64-2.65.88-.88,1.76,1.77V30.84h1.77v4.41l1.76-1.76.88.88L667.54,37Z"/><path id="Path_2723" data-name="Path 2723" class="cls-2" d="M667.54,39.61V45h-1.77V39.61h0a7.94,7.94,0,1,1,1.77,0Zm0-1.41a6.53,6.53,0,1,0-1.77,0h0v-3l-2.64-2.65.88-.88,1.76,1.76V30.84h1.77v4.41l1.76-1.76.89.88L667.54,37Z"/></g><g id="Group_6753" data-name="Group 6753"><path id="Path_2724" data-name="Path 2724" class="cls-1" d="M840.35,38.2a6.54,6.54,0,1,0-1.76,0h0v-3l-2.65-2.65.88-.88,1.77,1.77V30.84h1.76v4.41l1.77-1.76.88.88L840.35,37Z"/><path id="Path_2725" data-name="Path 2725" class="cls-2" d="M840.35,39.61V45h-1.76V39.61h0a7.94,7.94,0,1,1,1.76,0Zm0-1.41a6.54,6.54,0,1,0-1.76,0h0v-3l-2.65-2.65.88-.88,1.77,1.76V30.84h1.76v4.41l1.77-1.76.88.88L840.35,37Z"/></g><g id="Group_6754" data-name="Group 6754"><path id="Path_2726" data-name="Path 2726" class="cls-1" d="M300.91,38.2a6.54,6.54,0,1,0-1.76,0h0v-3L296.5,32.6l.88-.88,1.77,1.77V30.84h1.76v4.41l1.77-1.76.88.88L300.91,37Z"/><path id="Path_2727" data-name="Path 2727" class="cls-2" d="M300.92,39.61V45h-1.77V39.61h0a7.94,7.94,0,1,1,1.77,0Zm0-1.41a6.55,6.55,0,1,0-1.77,0h0v-3L296.5,32.6l.89-.88,1.76,1.76V30.84h1.77v4.41l1.76-1.76.88.88L300.92,37Z"/></g><g id="Group_6755" data-name="Group 6755"><path id="Path_2728" data-name="Path 2728" class="cls-1" d="M317.49,4.41l-7.06,24.71h6.17V26.47L314,23.82l.88-.88,1.76,1.77V22.06h1.77v4.41l1.76-1.77.89.88-2.65,2.65v.88h6.18Z"/><path id="Path_2729" data-name="Path 2729" class="cls-2" d="M325.43,30.85h-7.06V45H316.6V30.85h-8.82L317.49,0h0l9.7,30.85ZM317.49,4.41l-7.06,24.68h6.17V26.44L314,23.8l.88-.88,1.76,1.76V22h1.77v4.4l1.76-1.76.89.88-2.65,2.65v.88h6.18Z"/></g><g id="Group_6756" data-name="Group 6756"><path id="Path_2730" data-name="Path 2730" class="cls-1" d="M515.28,4.41l-7.06,24.71h6.18V26.47l-2.65-2.65.88-.88,1.77,1.77V22.06h1.76v4.41l1.77-1.77.88.88-2.65,2.65v.88h6.18Z"/><path id="Path_2731" data-name="Path 2731" class="cls-2" d="M523.22,30.85h-7.06V45H514.4V30.85h-8.83L515.28,0h0L525,30.85ZM515.28,4.41l-7.06,24.68h6.18V26.44l-2.65-2.64.88-.88,1.77,1.76V22h1.76v4.4l1.77-1.76.88.88-2.65,2.65v.88h6.18Z"/></g><g id="Group_6757" data-name="Group 6757"><path id="Path_2732" data-name="Path 2732" class="cls-1" d="M780.94,4.41l-7.06,24.71h6.18V26.47l-2.65-2.65.88-.88,1.77,1.77V22.06h1.76v4.41l1.77-1.77.88.88-2.65,2.65v.88H788Z"/><path id="Path_2733" data-name="Path 2733" class="cls-2" d="M788.88,30.85h-7.06V45h-1.76V30.85h-8.83L780.94,0h0l9.71,30.85ZM780.94,4.41l-7.06,24.68h6.18V26.44l-2.65-2.64.88-.88,1.77,1.76V22h1.76v4.4l1.77-1.76.88.88-2.65,2.65v.88H788Z"/></g><g id="Group_6758" data-name="Group 6758"><path id="Path_2734" data-name="Path 2734" class="cls-1" d="M217.84,18.48l-7.06,17.65H217V33.48l-2.64-2.64.88-.88L217,31.72V29.07h1.77v4.42l1.76-1.77.89.88-2.65,2.65v.88h6.18Z"/><path id="Path_2735" data-name="Path 2735" class="cls-2" d="M225.79,37.9h-7.06V45H217V37.9h-8.82L217.84,15h0l9.71,23Zm-7.95-19.42-7.06,17.65H217V33.49l-2.65-2.65.89-.88L217,31.72V29.07h1.77v4.42l1.76-1.77.88.88-2.64,2.65v.88h6.17Z"/></g><g id="Group_6759" data-name="Group 6759"><path id="Path_2736" data-name="Path 2736" class="cls-1" d="M640.39,18.48l-7.06,17.65h6.17V33.48l-2.64-2.64.88-.88,1.77,1.76V29.07h1.76v4.42L643,31.72l.88.88-2.65,2.65v.88h6.18Z"/><path id="Path_2737" data-name="Path 2737" class="cls-2" d="M648.33,37.9h-7.06V45H639.5V37.9h-8.82L640.39,15h0l9.7,23Zm-7.94-19.42-7.06,17.65h6.17V33.49l-2.64-2.65.88-.88,1.76,1.76V29.07h1.77v4.42L643,31.72l.89.88-2.65,2.65v.88h6.18Z"/></g><g id="Group_6760" data-name="Group 6760"><path id="Path_2738" data-name="Path 2738" class="cls-1" d="M768.18,18.48l-7.06,17.65h6.17V33.48l-2.64-2.64.88-.88,1.77,1.76V29.07h1.76v4.42l1.77-1.77.88.88-2.65,2.65v.88h6.18Z"/><path id="Path_2739" data-name="Path 2739" class="cls-2" d="M776.12,37.9h-7.06V45h-1.77V37.9h-8.82L768.18,15h0l9.7,23Zm-7.94-19.42-7.06,17.65h6.17V33.49l-2.64-2.65.88-.88,1.76,1.76V29.07h1.77v4.42l1.76-1.77.89.88-2.65,2.65v.88h6.18Z"/></g></g></g></g></svg>