<svg xmlns="http://www.w3.org/2000/svg" viewBox="0 0 52.33 50"><defs><style>.cls-1{fill:#888ea6;}</style></defs><g id="Layer_2" data-name="Layer 2"><g id="BACKGROUND"><path className="cls-1" d="M6,40.86H4v.81H5.84v.69H4v1H6.1V44H3.17V40.18H6ZM8.59,43l.39.36a.92.92,0,0,1-.43.11c-.44,0-1.05-.27-1.05-1.35s.61-1.35,1.05-1.35,1,.27,1,1.35a1.84,1.84,0,0,1-.17.83L9,42.55Zm1.83.89-.42-.4a2.19,2.19,0,0,0,.4-1.37,1.8,1.8,0,0,0-1.85-2,1.8,1.8,0,0,0-1.86,2,1.8,1.8,0,0,0,1.86,2,1.93,1.93,0,0,0,1-.26l.46.44.43-.44Zm3.77-1.19c0,1-.61,1.45-1.58,1.45a1.67,1.67,0,0,1-1.23-.47,1.39,1.39,0,0,1-.3-.93V40.18h.82v2.5c0,.54.31.78.69.78.55,0,.78-.27.78-.74V40.18h.82v2.51Zm2.16-1.64h0l.48,1.53h-1Zm-.71,2.19h1.42l.25.8h.88l-1.36-3.86H15.9L14.52,44h.85l.27-.8Zm4,.1h1.92V44H18.81V40.18h.81Zm5-1V44h-.8V40.18h.8v1.46H26.1V40.18h.8V44h-.8V42.31Zm3.85-.2c0-1.08.61-1.35,1-1.35s1,.27,1,1.35-.61,1.35-1,1.35S28.44,43.19,28.44,42.11Zm-.81,0a1.86,1.86,0,1,0,3.71,0,1.86,1.86,0,1,0-3.71,0Zm7.56.58c0,1-.62,1.45-1.59,1.45a1.65,1.65,0,0,1-1.22-.47,1.39,1.39,0,0,1-.3-.93V40.18h.82v2.5c0,.54.31.78.69.78.55,0,.77-.27.77-.74V40.18h.83v2.51Zm1.47.16c0,.21.12.62.82.62.38,0,.81-.09.81-.5s-.29-.38-.7-.48l-.42-.09c-.62-.15-1.22-.29-1.22-1.13,0-.43.23-1.19,1.48-1.19a1.32,1.32,0,0,1,1.51,1.24h-.78c0-.17-.08-.58-.79-.58-.3,0-.67.12-.67.47s.25.36.41.4l.94.23c.53.13,1,.34,1,1,0,1.16-1.18,1.26-1.52,1.26-1.41,0-1.65-.81-1.65-1.29ZM40.52,44h-.8V40.18h.8V44Zm3.22-3.86h.75V44h-.8l-1.57-2.75h0V44h-.75V40.18h.85l1.53,2.69h0V40.18ZM47.19,42H48.8V44h-.53l-.09-.49a1.39,1.39,0,0,1-1.2.59,1.8,1.8,0,0,1-1.77-2,1.85,1.85,0,0,1,1.88-2,1.53,1.53,0,0,1,1.7,1.3H48a.84.84,0,0,0-.84-.64c-.58,0-1.11.4-1.11,1.39s.58,1.33,1.12,1.33a1,1,0,0,0,.94-.85h-.9V42ZM3.8,48c0-1.08.62-1.35,1-1.35S5.9,46.89,5.9,48s-.61,1.35-1.05,1.35-1-.27-1-1.35ZM3,48a1.8,1.8,0,0,0,1.85,2,2,2,0,0,0,0-4.06A1.8,1.8,0,0,0,3,48Zm5.91-.13V46.7h.64c.5,0,.71.16.71.54,0,.17,0,.6-.6.6Zm0,.67h.92a1.19,1.19,0,0,0,1.23-1.24A1.12,1.12,0,0,0,9.87,46H8.11V49.9h.8V48.51Zm4.34-.67V46.7h.64c.5,0,.71.16.71.54,0,.17,0,.6-.6.6Zm0,.67h.92a1.19,1.19,0,0,0,1.23-1.24A1.12,1.12,0,0,0,14.21,46H12.44V49.9h.81V48.51ZM17.42,48c0-1.08.61-1.35,1-1.35s1,.27,1,1.35-.61,1.35-1,1.35S17.42,49.05,17.42,48Zm-.81,0a1.86,1.86,0,1,0,1.86-2A1.8,1.8,0,0,0,16.61,48Zm5.9-.23v-1h1c.48,0,.57.31.57.51,0,.38-.21.53-.62.53Zm-.79,2.16h.79V48.39h.83c.6,0,.63.2.63.73a2.42,2.42,0,0,0,.09.78H25v-.11c-.17-.06-.17-.2-.17-.76,0-.72-.17-.84-.49-1a.92.92,0,0,0,.59-.92A1.08,1.08,0,0,0,23.67,46h-2V49.9Zm6.17,0h-.81V46.72H25.92V46h3.13v.68H27.89Zm5.49-1.35c0,1-.62,1.45-1.59,1.45a1.65,1.65,0,0,1-1.22-.47,1.4,1.4,0,0,1-.3-.93V46h.82v2.5c0,.54.31.78.69.78.55,0,.77-.27.77-.74V46h.83v2.51ZM37.27,46H38V49.9h-.81l-1.57-2.75h0V49.9h-.76V46h.85l1.54,2.68h0V46Zm3,3.86h-.81V46h.81V49.9Zm3.15,0h-.81V46.72H41.48V46h3.13v.68H43.45Zm4.21,0h-.81V48.44L45.52,46h.95l.8,1.68L48,46H49l-1.29,2.41V49.9ZM26,0,0,12.79v6H2.91v18H48.84v-18h3.49v-6ZM43.22,31.39H8.53V14.92L26,6l17.25,8.91V31.39ZM33.91,20.73H17.83V14.92H33.91Zm0,8.34H17.83V23.25H33.91v5.82Z"/></g></g></svg>